name C:\Users\u0101727\Documents\MyRepositories\paper-ad\predictivesimulations_2d/Results/PredSim_2D/IK_c1.mot
datacolumns 11
datarows 34
range 1.27596115 1.59255302
endheader
time	pelvis_tilt	pelvis_tx	pelvis_ty	hip_flexion_l	hip_flexion_r	knee_angle_l	knee_angle_r	ankle_angle_l	ankle_angle_r	lumbar_extension	
          1.27596115	        -15.11796624	          1.69370290	          0.90062336	         33.20825506	         10.38471299	        -37.56351118	         -7.29072262	         15.70355809	         11.30579192	          9.43986625	
          1.28555484	        -15.11727269	          1.70569074	          0.89976442	         34.17671772	          9.60903574	        -36.09065418	         -7.33860784	         15.98917077	         11.31638796	          9.40000557	
          1.29514854	        -15.11765670	          1.71773412	          0.89884752	         35.08405958	          8.85099732	        -34.50115373	         -7.42220091	         16.19388479	         11.31471534	          9.36339777	
          1.30474223	        -15.11950866	          1.72983950	          0.89787154	         35.92681182	          8.10954693	        -32.80275490	         -7.54044171	         16.32681938	         11.30438278	          9.33035092	
          1.31433592	        -15.12315048	          1.74201502	          0.89683533	         36.70039008	          7.38434415	        -31.00690972	         -7.69363132	         16.39675670	         11.28621496	          9.30125048	
          1.32392962	        -15.12865136	          1.75427267	          0.89574153	         37.39806962	          6.67628929	        -29.13980901	         -7.88544423	         16.41184053	         11.25860090	          9.27668753	
          1.33352331	        -15.13603998	          1.76663070	          0.89460256	         38.00689324	          5.98740673	        -27.23569433	         -8.12211009	         16.37935803	         11.21550394	          9.25796696	
          1.34311700	        -15.14533846	          1.77911060	          0.89344012	         38.51107571	          5.32085204	        -25.32676015	         -8.41074974	         16.30570497	         11.14451080	          9.24680989	
          1.35271069	        -15.15622829	          1.79173116	          0.89227673	         38.90120031	          4.68103560	        -23.44083901	         -8.75983417	         16.19627120	         11.02934022	          9.24440237	
          1.36230439	        -15.16791230	          1.80450696	          0.89113036	         39.17713874	          4.07321713	        -21.59981222	         -9.17921367	         16.05518059	         10.85346719	          9.25114972	
          1.37189808	        -15.17917722	          1.81745086	          0.89001532	         39.34577431	          3.50268540	        -19.82530225	         -9.67921647	         15.88502960	         10.60261752	          9.26698009	
          1.38149177	        -15.18880367	          1.83057673	          0.88894377	         39.41432373	          2.97432924	        -18.13209373	        -10.26952809	         15.68701098	         10.26394047	          9.29198552	
          1.39108547	        -15.19564804	          1.84389903	          0.88792489	         39.38960937	          2.49258198	        -16.53196358	        -10.95871664	         15.46101966	          9.82528478	          9.32640425	
          1.40067916	        -15.19845600	          1.85743194	          0.88696396	         39.27922950	          2.06205889	        -15.04195880	        -11.75577876	         15.20577126	          9.27580174	          9.37037539	
          1.41027285	        -15.19596459	          1.87118988	          0.88606204	         39.08822494	          1.68827838	        -13.67662332	        -12.67100261	         14.91924815	          8.60451994	          9.42419152	
          1.41986654	        -15.18676963	          1.88518644	          0.88521483	         38.82137298	          1.37714977	        -12.45583324	        -13.71531610	         14.59857199	          7.80100012	          9.48810487	
          1.42946024	        -15.16931415	          1.89943335	          0.88441120	         38.48403488	          1.13433213	        -11.40838483	        -14.89892518	         14.23994191	          6.85772829	          9.56226512	
          1.43905393	        -15.14215671	          1.91394173	          0.88363203	         38.07654104	          0.96461487	        -10.56515216	        -16.23112204	         13.83899243	          5.77472312	          9.64726179	
          1.44864762	        -15.10410616	          1.92871982	          0.88284580	         37.59184769	          0.87091629	         -9.95978850	        -17.72487607	         13.39073703	          4.57434040	          9.74415604	
          1.45824132	        -15.05500811	          1.94376136	          0.88200866	         37.01197588	          0.85596376	         -9.64044406	        -19.38613141	         12.89037550	          3.27012081	          9.85409177	
          1.46783501	        -14.99742036	          1.95904930	          0.88114400	         36.26886035	          0.92699369	         -9.72767830	        -21.21176492	         12.33583732	          1.84205653	          9.98104249	
          1.47742870	        -14.93955434	          1.97439775	          0.88037875	         35.40564368	          1.08864175	        -10.04179912	        -23.18319609	         11.76646099	          0.37550407	         10.11558030	
          1.48702239	        -14.89238479	          1.98946602	          0.87994242	         34.54751194	          1.36776147	        -10.32186322	        -25.20799238	         11.21618824	         -0.90798280	         10.23446089	
          1.49661609	        -14.86447673	          2.00400696	          0.88009674	         33.73172165	          1.79261391	        -10.58001442	        -27.14592280	         10.68489795	         -1.91038501	         10.32377047	
          1.50620978	        -14.85817187	          2.01795761	          0.88099748	         32.96072791	          2.35910473	        -10.81112478	        -28.93434424	         10.18725040	         -2.66108051	         10.38236754	
          1.51580347	        -14.86877780	          2.03140123	          0.88260384	         32.21600159	          3.05045404	        -11.00320638	        -30.59399188	          9.73953627	         -3.16950355	         10.41639212	
          1.52539717	        -14.88970265	          2.04446204	          0.88470600	         31.47642617	          3.84611667	        -11.14733920	        -32.15397341	          9.35324787	         -3.44840027	         10.43287126	
          1.53499086	        -14.91558275	          2.05724754	          0.88707137	         30.72519338	          4.73054011	        -11.23670082	        -33.63187868	          9.03466186	         -3.51333851	         10.43712005	
          1.54458455	        -14.94297919	          2.06983197	          0.88951724	         29.95285898	          5.69169964	        -11.26937926	        -35.03619104	          8.78539629	         -3.37934327	         10.43233326	
          1.55417824	        -14.96999755	          2.08226230	          0.89191998	         29.15490090	          6.72058045	        -11.24582222	        -36.36821259	          8.60442013	         -3.06271017	         10.42026780	
          1.56377194	        -14.99567607	          2.09456860	          0.89420038	         28.32977418	          7.80978155	        -11.16803328	        -37.62482728	          8.48909376	         -2.58017746	         10.40193289	
          1.57336563	        -15.01952574	          2.10677117	          0.89630805	         27.47785232	          8.95312134	        -11.03949570	        -38.80116466	          8.43567561	         -1.94861095	         10.37794464	
          1.58295932	        -15.04127995	          2.11888510	          0.89821054	         26.60078627	         10.14505439	        -10.86505463	        -39.89113350	          8.43962461	         -1.18495354	         10.34875470	
          1.59255302	        -15.06076637	          2.13092278	          0.89988689	         25.70116952	         11.38022170	        -10.65074400	        -40.88796625	          8.49580020	         -0.30637330	         10.31476933	
